<svg xmlns="http://www.w3.org/2000/svg" width="29.521" height="35.988" viewBox="0 0 29.521 35.988">
  <g id="bill" transform="translate(-46)">
    <path id="Path_375" data-name="Path 375" d="M124.163,224.179V211H121v13.179a1.581,1.581,0,0,0,3.163,0Z" transform="translate(-69.728 -196.169)" fill="#fb6c78"/>
    <path id="Path_376" data-name="Path 376" d="M47.581,211A1.581,1.581,0,0,0,46,212.581v17.994l3.163,1.581,2.109-1.054,2.109,1.054,2.109-1.054,2.109,1.054,2.109-1.054,2.109,1.054,3.163-1.581v-2.706H52.853a3.7,3.7,0,0,1-3.69-3.69v-11.6A1.581,1.581,0,0,0,47.581,211Z" transform="translate(0 -196.169)" fill="#fb6c78"/>
    <path id="Path_377" data-name="Path 377" d="M210.082,26.428V1.581L206.919,0,204.81,1.054,202.7,0l-2.109,1.054L198.484,0l-2.109,1.054L194.267,0,191.1,1.581V28.01a3.648,3.648,0,0,1-.37,1.581h16.185A3.166,3.166,0,0,0,210.082,26.428ZM195.321,6.4h2.109V8.5h-2.109Zm10.543,18.978H195.321V23.265h10.543Zm0-4.217H195.321V19.048h10.543Zm0-4.217H195.321V14.831h10.543Zm0-4.217H195.321V10.614h10.543Zm0-4.217h-6.326V6.4h6.326Z" transform="translate(-134.561)" fill="#fb6c78"/>
  </g>
</svg>
