<svg id="information-button" xmlns="http://www.w3.org/2000/svg" width="36.07" height="36.07" viewBox="0 0 36.07 36.07">
  <path id="Path_381" data-name="Path 381" d="M18.034,0A18.035,18.035,0,1,0,36.07,18.034,18.036,18.036,0,0,0,18.034,0Zm3.754,27.951q-1.392.55-2.221.837a5.86,5.86,0,0,1-1.927.289,3.84,3.84,0,0,1-2.621-.823,2.656,2.656,0,0,1-.933-2.087,7.581,7.581,0,0,1,.069-1.006c.047-.342.122-.727.224-1.159l1.162-4.1c.1-.394.191-.768.261-1.116a4.949,4.949,0,0,0,.1-.966,1.488,1.488,0,0,0-.324-1.095,1.839,1.839,0,0,0-1.241-.307,3.258,3.258,0,0,0-.924.137c-.313.1-.585.183-.808.269l.307-1.264q1.141-.465,2.183-.8a6.45,6.45,0,0,1,1.97-.333,3.769,3.769,0,0,1,2.583.809,2.688,2.688,0,0,1,.907,2.1q0,.268-.063.942a6.3,6.3,0,0,1-.232,1.238l-1.156,4.092c-.095.328-.179.7-.255,1.124a5.942,5.942,0,0,0-.111.956,1.373,1.373,0,0,0,.365,1.112,2.043,2.043,0,0,0,1.263.3,3.663,3.663,0,0,0,.956-.148,5.434,5.434,0,0,0,.773-.26Zm-.2-16.608a2.758,2.758,0,0,1-1.947.751,2.787,2.787,0,0,1-1.954-.751,2.4,2.4,0,0,1-.814-1.821A2.422,2.422,0,0,1,17.683,7.7a2.767,2.767,0,0,1,1.954-.759,2.736,2.736,0,0,1,1.947.759,2.46,2.46,0,0,1,0,3.647Z" fill="#fb6c78"/>
</svg>
