<svg xmlns="http://www.w3.org/2000/svg" width="36.062" height="36.063" viewBox="0 0 36.062 36.063">
  <g id="help-web-button" transform="translate(-0.008)">
    <path id="Path_380" data-name="Path 380" d="M18.04,0A18.031,18.031,0,1,0,36.07,18.022,18.027,18.027,0,0,0,18.04,0Zm1.285,28.055a2.123,2.123,0,0,1-1.454.56,2.2,2.2,0,0,1-1.489-.553,1.936,1.936,0,0,1-.637-1.545,1.991,1.991,0,0,1,.616-1.482,2.077,2.077,0,0,1,1.51-.6,2.053,2.053,0,0,1,2.084,2.083A1.954,1.954,0,0,1,19.324,28.055Zm5.222-12.946A6.375,6.375,0,0,1,23.4,16.654q-.663.651-2.384,2.188a9.867,9.867,0,0,0-.762.762,3.1,3.1,0,0,0-.426.6,2.9,2.9,0,0,0-.217.546q-.076.272-.231.958a1.555,1.555,0,0,1-1.663,1.454,1.7,1.7,0,0,1-1.224-.475,1.868,1.868,0,0,1-.5-1.412,5.2,5.2,0,0,1,.364-2.034,5.141,5.141,0,0,1,.964-1.51,22.105,22.105,0,0,1,1.622-1.545Q19.842,15.4,20.24,15a4,4,0,0,0,.671-.888,2.138,2.138,0,0,0,.272-1.062,2.466,2.466,0,0,0-.831-1.887,3.038,3.038,0,0,0-2.146-.769,2.969,2.969,0,0,0-2.265.776,6.191,6.191,0,0,0-1.23,2.286q-.476,1.58-1.8,1.58a1.775,1.775,0,0,1-1.322-.552,1.689,1.689,0,0,1-.538-1.2A5.058,5.058,0,0,1,11.9,10.6a6.563,6.563,0,0,1,2.489-2.258,7.827,7.827,0,0,1,3.816-.9,8.142,8.142,0,0,1,3.579.749,5.8,5.8,0,0,1,2.4,2.034,4.992,4.992,0,0,1,.846,2.8A4.306,4.306,0,0,1,24.546,15.109Z" fill="#fb6c78"/>
  </g>
</svg>
