<svg xmlns="http://www.w3.org/2000/svg" width="35.998" height="27.528" viewBox="0 0 35.998 27.528">
  <g id="promo_1_" data-name="promo (1)" transform="translate(0 -60)">
    <path id="Path_370" data-name="Path 370" d="M3.573,70.588h.265a3.577,3.577,0,0,0,3.573-3.573v-.662H5.294v.662A1.457,1.457,0,0,1,3.838,68.47H3.573a1.457,1.457,0,0,1-1.456-1.456V63.573a1.457,1.457,0,0,1,1.456-1.456h.265a1.457,1.457,0,0,1,1.456,1.456v.662H7.411v-.662A3.577,3.577,0,0,0,3.838,60H3.573A3.577,3.577,0,0,0,0,63.573v3.442a3.577,3.577,0,0,0,3.573,3.573Z" transform="translate(0 0)" fill="#fb6c78"/>
    <path id="Path_371" data-name="Path 371" d="M138.573,70.588h.265a3.577,3.577,0,0,0,3.573-3.573V63.573A3.577,3.577,0,0,0,138.838,60h-.265A3.577,3.577,0,0,0,135,63.573v3.442A3.577,3.577,0,0,0,138.573,70.588Zm-1.456-7.015a1.457,1.457,0,0,1,1.456-1.456h.265a1.457,1.457,0,0,1,1.456,1.456v3.442a1.457,1.457,0,0,1-1.456,1.456h-.265a1.457,1.457,0,0,1-1.456-1.456Z" transform="translate(-125.471 0)" fill="#fb6c78"/>
    <path id="Path_372" data-name="Path 372" d="M277.411,67.015V63.573A3.577,3.577,0,0,0,273.838,60H270V70.588h3.838A3.577,3.577,0,0,0,277.411,67.015Zm-5.294-4.9h1.721a1.457,1.457,0,0,1,1.455,1.456v3.442a1.457,1.457,0,0,1-1.455,1.456h-1.721Z" transform="translate(-250.942 0)" fill="#fb6c78"/>
    <path id="Path_373" data-name="Path 373" d="M412.411,62.118V60H405V70.588h7.411V68.47h-5.294V66.353H411V64.235h-3.882V62.118Z" transform="translate(-376.413 0)" fill="#fb6c78"/>
    <path id="Path_374" data-name="Path 374" d="M31.763,242.117H29.645V240H25.41v2.117H23.293V240H19.058v2.117H16.94V240H12.705v2.117H10.588V240H6.353v2.117H4.235V240H0v4.235H2.118v2.118H0v2.117H2.118v2.118H0v4.235H4.235v-2.118H6.353v2.118h4.235v-2.118h2.118v2.118H16.94v-2.118h2.118v2.118h4.235v-2.118H25.41v2.118h4.235v-2.118h2.118v2.118H36v-4.235H33.881V248.47H36v-2.117H33.881v-2.118H36V240H31.763Zm-20.17,6.92-1.5,1.5-1.5-1.5-1.5,1.5-1.5-1.5,1.5-1.5-1.5-1.5,1.5-1.5,1.5,1.5,1.5-1.5,1.5,1.5-1.5,1.5Zm9.448,0-1.5,1.5-1.5-1.5-1.5,1.5-1.5-1.5,1.5-1.5-1.5-1.5,1.5-1.5,1.5,1.5,1.5-1.5,1.5,1.5-1.5,1.5Zm9.352,0-1.5,1.5-1.5-1.5-1.5,1.5-1.5-1.5,1.5-1.5-1.5-1.5,1.5-1.5,1.5,1.5,1.5-1.5,1.5,1.5-1.5,1.5Z" transform="translate(0 -167.295)" fill="#fb6c78"/>
  </g>
</svg>
