<svg xmlns="http://www.w3.org/2000/svg" width="30.047" height="30.047" viewBox="0 0 30.047 30.047">
  <g id="right-arrow" opacity="0.2">
    <path id="Path_346" data-name="Path 346" d="M30.047,15.023A15.023,15.023,0,1,1,15.023,0,15.023,15.023,0,0,1,30.047,15.023Zm0,0" fill="#062034"/>
    <path id="Path_347" data-name="Path 347" d="M79.273,165.7a.889.889,0,0,0-.058-1.184l-4.808-4.784a.88.88,0,1,0-1.242,1.248l3.3,3.28H56.88a.88.88,0,1,0,0,1.761H76.461l-3.3,3.28a.88.88,0,1,0,1.242,1.248l4.808-4.784a.816.816,0,0,0,.058-.064Zm0,0" transform="translate(-52.714 -150.117)" fill="#fff"/>
  </g>
</svg>
