<svg xmlns="http://www.w3.org/2000/svg" width="35.865" height="36.006" viewBox="0 0 35.865 36.006">
  <g id="friends" transform="translate(-1)">
    <g id="Group_662" data-name="Group 662" transform="translate(1)">
      <circle id="Ellipse_17" data-name="Ellipse 17" cx="4.044" cy="4.044" r="4.044" transform="translate(3.34)" fill="#fb6c78"/>
      <path id="Path_378" data-name="Path 378" d="M34.175,114.015a6.143,6.143,0,0,1-8.733.664,5.969,5.969,0,0,0-.775.9l-5.734,8.189L13.2,115.578a5.966,5.966,0,0,0-.775-.9,6.143,6.143,0,0,1-8.733-.664A5.971,5.971,0,0,0,1,119.007v6.681A2.813,2.813,0,0,0,3.813,128.5v12.447A1.055,1.055,0,0,0,4.868,142H7.681V131.665a1.055,1.055,0,1,1,2.11,0V142H12.6a1.055,1.055,0,0,0,1.055-1.055V123.592l3.546,5.064a2.107,2.107,0,0,0,3.456,0l3.547-5.064v17.357A1.055,1.055,0,0,0,25.262,142h2.813V131.665a1.055,1.055,0,1,1,2.11,0V142H33a1.055,1.055,0,0,0,1.055-1.055V128.5a2.813,2.813,0,0,0,2.813-2.813v-6.681A5.971,5.971,0,0,0,34.175,114.015Z" transform="translate(-1 -105.997)" fill="#fb6c78"/>
      <circle id="Ellipse_18" data-name="Ellipse 18" cx="4.044" cy="4.044" r="4.044" transform="translate(24.438)" fill="#fb6c78"/>
    </g>
    <path id="Path_379" data-name="Path 379" d="M348.5,4.044a4.044,4.044,0,1,1,4.044,4.044A4.048,4.048,0,0,1,348.5,4.044Z" transform="translate(-323.062)" fill="#fb6c78"/>
  </g>
</svg>
