<svg xmlns="http://www.w3.org/2000/svg" width="36.07" height="36.072" viewBox="0 0 36.07 36.072">
  <g id="logout" transform="translate(-0.014)">
    <g id="Group_664" data-name="Group 664" transform="translate(0.014)">
      <g id="Group_663" data-name="Group 663" transform="translate(0)">
        <path id="Path_382" data-name="Path 382" d="M313.594,154.776a1.519,1.519,0,0,0-.326-.49l-4.508-4.508a1.5,1.5,0,0,0-2.125,2.125l1.943,1.943h-8.4a1.5,1.5,0,1,0,0,3.006h8.4l-1.943,1.943a1.5,1.5,0,1,0,2.125,2.125l4.508-4.508a1.488,1.488,0,0,0,.326-.49A1.5,1.5,0,0,0,313.594,154.776Z" transform="translate(-277.638 -138.818)" fill="#fb6c78"/>
        <path id="Path_383" data-name="Path 383" d="M25.565,21.042a1.5,1.5,0,0,0-1.5,1.5V30.06H18.05V6.012a1.5,1.5,0,0,0-1.072-1.44l-5.22-1.566h12.3v7.515a1.5,1.5,0,0,0,3.006,0V1.5a1.5,1.5,0,0,0-1.5-1.5H1.517a1.339,1.339,0,0,0-.155.029A1.484,1.484,0,0,0,.725.251C.692.272.651.274.62.3.608.307.6.323.591.332a1.489,1.489,0,0,0-.4.475A1.228,1.228,0,0,0,.149.933a1.426,1.426,0,0,0-.119.352.936.936,0,0,0,0,.131c0,.03-.021.057-.021.087v30.06a1.5,1.5,0,0,0,1.208,1.473l15.03,3.006a1.4,1.4,0,0,0,.295.03,1.5,1.5,0,0,0,1.5-1.5v-1.5h7.515a1.5,1.5,0,0,0,1.5-1.5V22.545A1.5,1.5,0,0,0,25.565,21.042Z" transform="translate(-0.014)" fill="#fb6c78"/>
      </g>
    </g>
  </g>
</svg>
