<svg id="Group_661" data-name="Group 661" xmlns="http://www.w3.org/2000/svg" width="38.675" height="33.518" viewBox="0 0 38.675 33.518">
  <g id="XMLID_100_" transform="translate(0 9.454)">
    <path id="XMLID_99_" d="M17.028,0C11.214,0,6.5,5.387,6.5,12.032s4.714,12.032,10.528,12.032,10.528-5.387,10.528-12.032S22.843,0,17.028,0" transform="translate(-3.922 0)" fill="#ffd949"/>
    <path id="XMLID_132_" d="M3.078,12.032c0,6.146,4.033,11.212,9.239,11.939a9.338,9.338,0,0,1-1.289.093C5.214,24.065.5,18.678.5,12.032S5.214,0,11.028,0a9.337,9.337,0,0,1,1.289.093C7.111.82,3.078,5.886,3.078,12.032" transform="translate(-0.5 0)" fill="#f4bf1a"/>
    <path id="XMLID_115_" d="M19.726,5.476h-.037a7.66,7.66,0,0,0-.9.053.43.43,0,1,0,.1.853,6.765,6.765,0,0,1,.8-.047.446.446,0,0,0,.448-.43.414.414,0,0,0-.411-.43m2.5.463a.43.43,0,0,0-.152.832,7.065,7.065,0,0,1,.733.325.43.43,0,1,0,.392-.764,7.99,7.99,0,0,0-.822-.365.423.423,0,0,0-.151-.028m-5.816.328a.427.427,0,0,0-.194.047,8.194,8.194,0,0,0-.777.45.43.43,0,1,0,.471.719,7.276,7.276,0,0,1,.7-.4.43.43,0,0,0-.195-.813M25.05,7.8a.43.43,0,0,0-.305.732,8.086,8.086,0,0,1,.54.6.43.43,0,0,0,.667-.542c-.19-.233-.39-.457-.6-.665A.43.43,0,0,0,25.05,7.8M13.783,8.4a.43.43,0,0,0-.333.157c-.187.228-.366.468-.532.715a.43.43,0,1,0,.712.481c.152-.225.315-.444.484-.651a.429.429,0,0,0-.332-.7m13.156,2.207a.43.43,0,0,0-.394.6c.108.247.206.5.293.76a.43.43,0,0,0,.815-.274c-.095-.281-.2-.56-.319-.829a.431.431,0,0,0-.394-.258m-14.794.759a.431.431,0,0,0-.407.291c-.095.278-.179.565-.251.852a.43.43,0,0,0,.834.208c.066-.263.143-.527.23-.782a.43.43,0,0,0-.268-.545.423.423,0,0,0-.139-.024M27.751,13.9h-.034a.43.43,0,0,0-.4.462c.02.26.031.526.031.79a.442.442,0,0,0,.43.443.418.418,0,0,0,.43-.416v-.028c0-.286-.011-.574-.033-.856a.43.43,0,0,0-.428-.4M11.6,14.721a.426.426,0,0,0-.43.425v.009c0,.293.012.588.034.875a.43.43,0,1,0,.857-.068c-.021-.266-.032-.537-.032-.807a.434.434,0,0,0-.43-.434m15.872,2.562a.429.429,0,0,0-.416.324c-.067.264-.144.527-.232.783a.43.43,0,1,0,.813.278c.1-.278.18-.564.252-.85a.43.43,0,0,0-.312-.522.4.4,0,0,0-.106-.013m-15.328.781a.431.431,0,0,0-.407.568c.095.279.2.558.321.829a.43.43,0,1,0,.788-.344c-.109-.248-.208-.5-.294-.76a.431.431,0,0,0-.407-.292m13.953,2.318a.429.429,0,0,0-.356.189c-.152.224-.315.443-.486.65a.43.43,0,1,0,.663.547c.187-.227.367-.468.534-.715a.43.43,0,0,0-.355-.671m-12.322.654a.43.43,0,0,0-.332.7c.19.232.391.456.6.664a.43.43,0,0,0,.61-.606c-.187-.189-.37-.391-.542-.6a.427.427,0,0,0-.333-.158m9.919,1.732a.425.425,0,0,0-.234.07,7.314,7.314,0,0,1-.7.4.43.43,0,0,0,.388.767,8.066,8.066,0,0,0,.778-.448.43.43,0,0,0-.235-.79m-7.3.408a.43.43,0,0,0-.2.813,7.941,7.941,0,0,0,.823.363.43.43,0,1,0,.3-.8,7.034,7.034,0,0,1-.734-.324.425.425,0,0,0-.194-.047m4.128.752a.392.392,0,0,0-.05,0,6.8,6.8,0,0,1-.782.045.438.438,0,0,0-.439.43.422.422,0,0,0,.421.43h.018a7.642,7.642,0,0,0,.881-.051.43.43,0,0,0-.049-.856" transform="translate(-6.583 -3.123)" fill="#f4bf1a"/>
    <path id="XMLID_114_" d="M3.077,29.859H.5c.009-.289.025-.576.051-.859h2.58q-.04.425-.053.859" transform="translate(-0.5 -18.257)" fill="#dca815"/>
    <path id="XMLID_113_" d="M3.2,24.859H.626C.59,24.576.565,24.289.547,24H3.125c.018.289.042.576.078.859" transform="translate(-0.527 -11.108)" fill="#dca815"/>
    <path id="XMLID_112_" d="M3.626,34.859H1.047q.084-.436.194-.859H3.819q-.11.424-.193.859" transform="translate(-0.812 -25.406)" fill="#dca815"/>
    <path id="XMLID_111_" d="M5.023,39.859H2.443c.11-.293.231-.579.36-.859H5.381q-.193.42-.358.859" transform="translate(-1.608 -32.554)" fill="#dca815"/>
    <path id="XMLID_110_" d="M4.053,19.859H1.477c-.084-.282-.162-.568-.227-.859H3.831c.065.29.138.578.221.859" transform="translate(-0.928 -3.96)" fill="#dca815"/>
    <path id="XMLID_109_" d="M5.815,14.859H3.236c-.142-.28-.275-.566-.4-.859h2.58q.183.44.4.859" transform="translate(-1.834 3.189)" fill="#dca815"/>
    <path id="XMLID_108_" d="M9.494,8.859H6.913q-.367-.41-.7-.859H8.8q.331.449.7.859" transform="translate(-3.76 11.767)" fill="#dca815"/>
    <path id="XMLID_107_" d="M14.857,3.859H12.273A10.334,10.334,0,0,1,11.011,3h2.582a10.354,10.354,0,0,0,1.263.859" transform="translate(-6.494 18.916)" fill="#dca815"/>
    <path id="XMLID_106_" d="M8.1,45.859H5.516q.3-.447.633-.859H8.73q-.334.413-.634.859" transform="translate(-3.36 -41.132)" fill="#dca815"/>
    <path id="XMLID_105_" d="M9.832,50.859A10.664,10.664,0,0,1,10.917,50H13.5a10.575,10.575,0,0,0-1.092.859Z" transform="translate(-5.822 -48.281)" fill="#dca815"/>
  </g>
  <g id="XMLID_100_2" data-name="XMLID_100_" transform="translate(6.446 0)">
    <path id="XMLID_99_2" data-name="XMLID_99_" d="M17.028,0C11.214,0,6.5,5.387,6.5,12.032s4.714,12.032,10.528,12.032,10.528-5.387,10.528-12.032S22.843,0,17.028,0" transform="translate(-3.922)" fill="#ffd949"/>
    <path id="XMLID_132_2" data-name="XMLID_132_" d="M3.078,12.032c0,6.146,4.033,11.212,9.239,11.939a9.338,9.338,0,0,1-1.289.093C5.214,24.065.5,18.678.5,12.032S5.214,0,11.028,0a9.337,9.337,0,0,1,1.289.093C7.111.82,3.078,5.886,3.078,12.032" transform="translate(-0.5)" fill="#f4bf1a"/>
    <path id="XMLID_115_2" data-name="XMLID_115_" d="M19.726,5.476h-.037a7.66,7.66,0,0,0-.9.053.43.43,0,1,0,.1.853,6.765,6.765,0,0,1,.8-.047.446.446,0,0,0,.448-.43.414.414,0,0,0-.411-.43m2.5.463a.43.43,0,0,0-.152.832,7.065,7.065,0,0,1,.733.325.43.43,0,1,0,.392-.764,7.99,7.99,0,0,0-.822-.365.423.423,0,0,0-.151-.028m-5.816.328a.427.427,0,0,0-.194.047,8.194,8.194,0,0,0-.777.45.43.43,0,1,0,.471.719,7.276,7.276,0,0,1,.7-.4.43.43,0,0,0-.195-.813M25.05,7.8a.43.43,0,0,0-.305.732,8.086,8.086,0,0,1,.54.6.43.43,0,0,0,.667-.542c-.19-.233-.39-.457-.6-.665A.43.43,0,0,0,25.05,7.8M13.783,8.4a.43.43,0,0,0-.333.157c-.187.228-.366.468-.532.715a.43.43,0,1,0,.712.481c.152-.225.315-.444.484-.651a.429.429,0,0,0-.332-.7m13.156,2.207a.43.43,0,0,0-.394.6c.108.247.206.5.293.76a.43.43,0,0,0,.815-.274c-.095-.281-.2-.56-.319-.829a.431.431,0,0,0-.394-.258m-14.794.759a.431.431,0,0,0-.407.291c-.095.278-.179.565-.251.852a.43.43,0,0,0,.834.208c.066-.263.143-.527.23-.782a.43.43,0,0,0-.268-.545.423.423,0,0,0-.139-.024M27.751,13.9h-.034a.43.43,0,0,0-.4.462c.02.26.031.526.031.79a.442.442,0,0,0,.43.443.418.418,0,0,0,.43-.416v-.028c0-.286-.011-.574-.033-.856a.43.43,0,0,0-.428-.4M11.6,14.721a.426.426,0,0,0-.43.425v.009c0,.293.012.588.034.875a.43.43,0,1,0,.857-.068c-.021-.266-.032-.537-.032-.807a.434.434,0,0,0-.43-.434m15.872,2.562a.429.429,0,0,0-.416.324c-.067.264-.144.527-.232.783a.43.43,0,1,0,.813.278c.1-.278.18-.564.252-.85a.43.43,0,0,0-.312-.522.4.4,0,0,0-.106-.013m-15.328.781a.431.431,0,0,0-.407.568c.095.279.2.558.321.829a.43.43,0,1,0,.788-.344c-.109-.248-.208-.5-.294-.76a.431.431,0,0,0-.407-.292m13.953,2.318a.429.429,0,0,0-.356.189c-.152.224-.315.443-.486.65a.43.43,0,1,0,.663.547c.187-.227.367-.468.534-.715a.43.43,0,0,0-.355-.671m-12.322.654a.43.43,0,0,0-.332.7c.19.232.391.456.6.664a.43.43,0,0,0,.61-.606c-.187-.189-.37-.391-.542-.6a.427.427,0,0,0-.333-.158m9.919,1.732a.425.425,0,0,0-.234.07,7.314,7.314,0,0,1-.7.4.43.43,0,0,0,.388.767,8.066,8.066,0,0,0,.778-.448.43.43,0,0,0-.235-.79m-7.3.408a.43.43,0,0,0-.2.813,7.941,7.941,0,0,0,.823.363.43.43,0,1,0,.3-.8,7.034,7.034,0,0,1-.734-.324.425.425,0,0,0-.194-.047m4.128.752a.392.392,0,0,0-.05,0,6.8,6.8,0,0,1-.782.045.438.438,0,0,0-.439.43.422.422,0,0,0,.421.43h.018a7.642,7.642,0,0,0,.881-.051.43.43,0,0,0-.049-.856" transform="translate(-6.583 -3.123)" fill="#f4bf1a"/>
    <path id="XMLID_114_2" data-name="XMLID_114_" d="M3.077,29.859H.5c.009-.289.025-.576.051-.859h2.58q-.04.425-.053.859" transform="translate(-0.5 -18.257)" fill="#dca815"/>
    <path id="XMLID_113_2" data-name="XMLID_113_" d="M3.2,24.859H.626C.59,24.576.565,24.289.547,24H3.125c.018.289.042.576.078.859" transform="translate(-0.527 -11.108)" fill="#dca815"/>
    <path id="XMLID_112_2" data-name="XMLID_112_" d="M3.626,34.859H1.047q.084-.436.194-.859H3.819q-.11.424-.193.859" transform="translate(-0.812 -25.406)" fill="#dca815"/>
    <path id="XMLID_111_2" data-name="XMLID_111_" d="M5.023,39.859H2.443c.11-.293.231-.579.36-.859H5.381q-.193.42-.358.859" transform="translate(-1.608 -32.554)" fill="#dca815"/>
    <path id="XMLID_110_2" data-name="XMLID_110_" d="M4.053,19.859H1.477c-.084-.282-.162-.568-.227-.859H3.831c.065.29.138.578.221.859" transform="translate(-0.928 -3.96)" fill="#dca815"/>
    <path id="XMLID_109_2" data-name="XMLID_109_" d="M5.815,14.859H3.236c-.142-.28-.275-.566-.4-.859h2.58q.183.44.4.859" transform="translate(-1.834 3.189)" fill="#dca815"/>
    <path id="XMLID_108_2" data-name="XMLID_108_" d="M9.494,8.859H6.913q-.367-.41-.7-.859H8.8q.331.449.7.859" transform="translate(-3.76 11.767)" fill="#dca815"/>
    <path id="XMLID_107_2" data-name="XMLID_107_" d="M14.857,3.859H12.273A10.334,10.334,0,0,1,11.011,3h2.582a10.354,10.354,0,0,0,1.263.859" transform="translate(-6.494 18.916)" fill="#dca815"/>
    <path id="XMLID_106_2" data-name="XMLID_106_" d="M8.1,45.859H5.516q.3-.447.633-.859H8.73q-.334.413-.634.859" transform="translate(-3.36 -41.132)" fill="#dca815"/>
    <path id="XMLID_105_2" data-name="XMLID_105_" d="M9.832,50.859A10.664,10.664,0,0,1,10.917,50H13.5a10.575,10.575,0,0,0-1.092.859Z" transform="translate(-5.822 -48.281)" fill="#dca815"/>
  </g>
  <g id="XMLID_100_3" data-name="XMLID_100_" transform="translate(15.04 9.454)">
    <path id="XMLID_99_3" data-name="XMLID_99_" d="M17.028,0C11.214,0,6.5,5.387,6.5,12.032s4.714,12.032,10.528,12.032,10.528-5.387,10.528-12.032S22.843,0,17.028,0" transform="translate(-3.922 0)" fill="#ffd949"/>
    <path id="XMLID_132_3" data-name="XMLID_132_" d="M3.078,12.032c0,6.146,4.033,11.212,9.239,11.939a9.338,9.338,0,0,1-1.289.093C5.214,24.065.5,18.678.5,12.032S5.214,0,11.028,0a9.337,9.337,0,0,1,1.289.093C7.111.82,3.078,5.886,3.078,12.032" transform="translate(-0.5 0)" fill="#f4bf1a"/>
    <path id="XMLID_115_3" data-name="XMLID_115_" d="M19.726,5.476h-.037a7.66,7.66,0,0,0-.9.053.43.43,0,1,0,.1.853,6.765,6.765,0,0,1,.8-.047.446.446,0,0,0,.448-.43.414.414,0,0,0-.411-.43m2.5.463a.43.43,0,0,0-.152.832,7.065,7.065,0,0,1,.733.325.43.43,0,1,0,.392-.764,7.99,7.99,0,0,0-.822-.365.423.423,0,0,0-.151-.028m-5.816.328a.427.427,0,0,0-.194.047,8.194,8.194,0,0,0-.777.45.43.43,0,1,0,.471.719,7.276,7.276,0,0,1,.7-.4.43.43,0,0,0-.195-.813M25.05,7.8a.43.43,0,0,0-.305.732,8.086,8.086,0,0,1,.54.6.43.43,0,0,0,.667-.542c-.19-.233-.39-.457-.6-.665A.43.43,0,0,0,25.05,7.8M13.783,8.4a.43.43,0,0,0-.333.157c-.187.228-.366.468-.532.715a.43.43,0,1,0,.712.481c.152-.225.315-.444.484-.651a.429.429,0,0,0-.332-.7m13.156,2.207a.43.43,0,0,0-.394.6c.108.247.206.5.293.76a.43.43,0,0,0,.815-.274c-.095-.281-.2-.56-.319-.829a.431.431,0,0,0-.394-.258m-14.794.759a.431.431,0,0,0-.407.291c-.095.278-.179.565-.251.852a.43.43,0,0,0,.834.208c.066-.263.143-.527.23-.782a.43.43,0,0,0-.268-.545.423.423,0,0,0-.139-.024M27.751,13.9h-.034a.43.43,0,0,0-.4.462c.02.26.031.526.031.79a.442.442,0,0,0,.43.443.418.418,0,0,0,.43-.416v-.028c0-.286-.011-.574-.033-.856a.43.43,0,0,0-.428-.4M11.6,14.721a.426.426,0,0,0-.43.425v.009c0,.293.012.588.034.875a.43.43,0,1,0,.857-.068c-.021-.266-.032-.537-.032-.807a.434.434,0,0,0-.43-.434m15.872,2.562a.429.429,0,0,0-.416.324c-.067.264-.144.527-.232.783a.43.43,0,1,0,.813.278c.1-.278.18-.564.252-.85a.43.43,0,0,0-.312-.522.4.4,0,0,0-.106-.013m-15.328.781a.431.431,0,0,0-.407.568c.095.279.2.558.321.829a.43.43,0,1,0,.788-.344c-.109-.248-.208-.5-.294-.76a.431.431,0,0,0-.407-.292m13.953,2.318a.429.429,0,0,0-.356.189c-.152.224-.315.443-.486.65a.43.43,0,1,0,.663.547c.187-.227.367-.468.534-.715a.43.43,0,0,0-.355-.671m-12.322.654a.43.43,0,0,0-.332.7c.19.232.391.456.6.664a.43.43,0,0,0,.61-.606c-.187-.189-.37-.391-.542-.6a.427.427,0,0,0-.333-.158m9.919,1.732a.425.425,0,0,0-.234.07,7.314,7.314,0,0,1-.7.4.43.43,0,0,0,.388.767,8.066,8.066,0,0,0,.778-.448.43.43,0,0,0-.235-.79m-7.3.408a.43.43,0,0,0-.2.813,7.941,7.941,0,0,0,.823.363.43.43,0,1,0,.3-.8,7.034,7.034,0,0,1-.734-.324.425.425,0,0,0-.194-.047m4.128.752a.392.392,0,0,0-.05,0,6.8,6.8,0,0,1-.782.045.438.438,0,0,0-.439.43.422.422,0,0,0,.421.43h.018a7.642,7.642,0,0,0,.881-.051.43.43,0,0,0-.049-.856" transform="translate(-6.583 -3.123)" fill="#f4bf1a"/>
    <path id="XMLID_114_3" data-name="XMLID_114_" d="M3.077,29.859H.5c.009-.289.025-.576.051-.859h2.58q-.04.425-.053.859" transform="translate(-0.5 -18.257)" fill="#dca815"/>
    <path id="XMLID_113_3" data-name="XMLID_113_" d="M3.2,24.859H.626C.59,24.576.565,24.289.547,24H3.125c.018.289.042.576.078.859" transform="translate(-0.527 -11.108)" fill="#dca815"/>
    <path id="XMLID_112_3" data-name="XMLID_112_" d="M3.626,34.859H1.047q.084-.436.194-.859H3.819q-.11.424-.193.859" transform="translate(-0.812 -25.406)" fill="#dca815"/>
    <path id="XMLID_111_3" data-name="XMLID_111_" d="M5.023,39.859H2.443c.11-.293.231-.579.36-.859H5.381q-.193.42-.358.859" transform="translate(-1.608 -32.554)" fill="#dca815"/>
    <path id="XMLID_110_3" data-name="XMLID_110_" d="M4.053,19.859H1.477c-.084-.282-.162-.568-.227-.859H3.831c.065.29.138.578.221.859" transform="translate(-0.928 -3.96)" fill="#dca815"/>
    <path id="XMLID_109_3" data-name="XMLID_109_" d="M5.815,14.859H3.236c-.142-.28-.275-.566-.4-.859h2.58q.183.44.4.859" transform="translate(-1.834 3.189)" fill="#dca815"/>
    <path id="XMLID_108_3" data-name="XMLID_108_" d="M9.494,8.859H6.913q-.367-.41-.7-.859H8.8q.331.449.7.859" transform="translate(-3.76 11.767)" fill="#dca815"/>
    <path id="XMLID_107_3" data-name="XMLID_107_" d="M14.857,3.859H12.273A10.334,10.334,0,0,1,11.011,3h2.582a10.354,10.354,0,0,0,1.263.859" transform="translate(-6.494 18.916)" fill="#dca815"/>
    <path id="XMLID_106_3" data-name="XMLID_106_" d="M8.1,45.859H5.516q.3-.447.633-.859H8.73q-.334.413-.634.859" transform="translate(-3.36 -41.132)" fill="#dca815"/>
    <path id="XMLID_105_3" data-name="XMLID_105_" d="M9.832,50.859A10.664,10.664,0,0,1,10.917,50H13.5a10.575,10.575,0,0,0-1.092.859Z" transform="translate(-5.822 -48.281)" fill="#dca815"/>
  </g>
</svg>
