<?xml version="1.0" encoding="UTF-8"?>
<svg width="48px" height="48px" viewBox="0 0 48 48" version="1.1" xmlns="http://www.w3.org/2000/svg" xmlns:xlink="http://www.w3.org/1999/xlink">
    <!-- Generator: Sketch 58 (84663) - https://sketch.com -->
    <title>nav_ic_ return_black@2x</title>
    <desc>Created with Sketch.</desc>
    <g id="安卓" stroke="none" stroke-width="1" fill="none" fill-rule="evenodd">
        <g id="选择支付渠道和国家" transform="translate(-32.000000, -80.000000)" fill="#212121">
            <g id="nav_ic_-return" transform="translate(32.000000, 80.000000)">
                <g id="nav_ic_-return_black">
                    <g transform="translate(8.640000, 6.000000)" id="形状结合">
                        <path d="M29.5609669,3.09645179 C29.5794363,3.11418245 29.597542,3.13228816 29.6152727,3.1507576 L29.6432566,3.1799075 C30.3862238,3.95383161 30.3862238,5.17611071 29.6432566,5.95003481 L18.0743723,17.9999712 L29.6432566,30.0499652 C30.3862238,30.8238893 30.3862238,32.0461684 29.6432566,32.8200925 L29.6152727,32.8492424 C28.8954583,33.599049 27.7040951,33.6233626 26.9542885,32.9035482 L26.8999827,32.8492424 L26.8999827,32.8492424 L15.3593723,20.8279712 L3.82001733,32.8492424 C3.10020296,33.599049 1.90883973,33.6233626 1.15903309,32.9035482 L1.10472729,32.8492424 L1.10472729,32.8492424 L1.07674338,32.8200925 C0.333776238,32.0461684 0.333776238,30.8238893 1.07674338,30.0499652 L12.6443723,17.9999712 L1.07674338,5.95003481 C0.333776238,5.17611071 0.333776238,3.95383161 1.07674338,3.1799075 L1.10472729,3.1507576 C1.82454167,2.40095095 3.01590489,2.37663742 3.76571153,3.09645179 L3.82001733,3.1507576 L3.82001733,3.1507576 L15.3593723,15.1709712 L26.8999827,3.1507576 C27.619797,2.40095095 28.8111603,2.37663742 29.5609669,3.09645179 Z"></path>
                    </g>
                </g>
            </g>
        </g>
    </g>
</svg>