<?xml version="1.0" encoding="UTF-8"?>
<svg width="48px" height="48px" viewBox="0 0 48 48" version="1.1" xmlns="http://www.w3.org/2000/svg" xmlns:xlink="http://www.w3.org/1999/xlink">
    <!-- Generator: Sketch 59.1 (86144) - https://sketch.com -->
    <title>nav_ic_ return_black@2x</title>
    <desc>Created with Sketch.</desc>
    <g id="安卓" stroke="none" stroke-width="1" fill="none" fill-rule="evenodd">
        <g id="钱包" transform="translate(-32.000000, -80.000000)" fill="#999999" fill-rule="nonzero">
            <g id="nav_ic_-return" transform="translate(32.000000, 80.000000)">
                <g id="nav_ic_-return_black">
                    <g transform="translate(14.000000, 6.000000)" id="Group-17">
                        <g>
                            <path d="M16.5857864,0.585786438 C17.366835,-0.195262146 18.633165,-0.195262146 19.4142136,0.585786438 C20.1952621,1.36683502 20.1952621,2.63316498 19.4142136,3.41421356 L19.4142136,3.41421356 L4.828,18 L19.4142136,32.5857864 C20.1541543,33.3257272 20.1930986,34.5012114 19.5310463,35.2869988 L19.4142136,35.4142136 C18.633165,36.1952621 17.366835,36.1952621 16.5857864,35.4142136 L16.5857864,35.4142136 L1.04208971,19.8705168 C0.964441604,19.7928687 0.894512902,19.7104244 0.832303601,19.6241375 C0.745806487,19.561729 0.663400456,19.4918276 0.585786438,19.4142136 C-0.195262146,18.633165 -0.195262146,17.366835 0.585786438,16.5857864 L0.585786438,16.5857864 Z" id="形状结合"></path>
                        </g>
                    </g>
                </g>
            </g>
        </g>
    </g>
</svg>